# AST/ASF file generated using VICON BodyLanguage
# -----------------------------------------------
:version 1.10
:name VICON
:units
  mass 1.0
  length 0.45
  angle deg
:documentation
   .ast/.asf automatically generated from VICON data using
   VICON BodyBuilder and BodyLanguage model FoxedUp or BRILLIANT.MOD
:root
   order TX TY TZ RX RY RZ
   axis XYZ
   position 0 0 0  
   orientation 0 0 0 
:bonedata
  begin
     id 1 
     name lhipjoint
     direction 0.822369 -0.411937 0.392449 
     length 3.8167 
     axis 0 0 0  XYZ
  end
  begin
     id 2 
     name lfemur
     direction 0.34202 -0.939693 0  
     length 6.16791  
     axis 0 0 20  XYZ
    dof rx ry rz
    limits (-160.0 20.0)
           (-70.0 70.0)
           (-60.0 70.0)
  end
  begin
     id 3 
     name ltibia
     direction 0.34202 -0.939693 0   
     length 7.07101   
     axis 0 0 20   XYZ
    dof rx
    limits (-10.0 170.0)
  end
  begin
     id 4 
     name lfoot
     direction 0.028254 -0.0776273 0.996582   
     length 1.66799   
     axis -90 7.62852e-016 20   XYZ
    dof rx rz
    limits (-45.0 90.0)
           (-70.0 20.0)
  end
  begin
     id 5 
     name ltoes
     direction 1.53483e-011 -4.21688e-011 1   
     length 0.851674   
     axis -90 7.62852e-016 20   XYZ
    dof rx
    limits (-90.0 20.0)
  end
  begin
     id 6 
     name rhipjoint
     direction -0.822466 -0.411836 0.392353   
     length 3.81764  
     axis 0 0 0  XYZ 
  end
  begin
     id 7 
     name rfemur
     direction -0.34202 -0.939693 0   
     length 6.28636   
     axis 0 0 -20   XYZ
    dof rx ry rz
    limits (-160.0 20.0)
           (-70.0 70.0)
           (-70.0 60.0)
  end
  begin
     id 8 
     name rtibia
     direction -0.34202 -0.939693 0   
     length 6.85621   
     axis 0 0 -20   XYZ
    dof rx
    limits (-10.0 170.0)
 end
 begin
     id 9 
     name rfoot
     direction -0.0553036 -0.151945 0.98684   
     length 1.57293  
     axis -90 -7.62852e-016 -20   XYZ
    dof rx rz
    limits (-45.0 90.0)
           (-20.0 70.0)
  end
  begin
     id 10 
     name rtoes
     direction -1.53592e-011 -4.21964e-011 1   
     length 0.802812   
     axis -90 -7.62852e-016 -20   XYZ
    dof rx
    limits (-90.0 20.0)
  end
  begin
     id 11 
     name lowerback
     direction 0.00654913 0.996475 -0.0836396   
     length 1.97212   
     axis 0 0 0   XYZ
    dof rx ry rz
    limits (-20.0 45.0)
           (-30.0 30.0)
           (-30.0 30.0)
  end
  begin
     id 12 
     name upperback
     direction 0.0111875 0.994527 0.103877   
     length 1.89704   
     axis 0 0 0   XYZ
    dof rx ry rz
    limits (-20.0 45.0)
           (-30.0 30.0)
           (-30.0 30.0)
  end
  begin
     id 13 
     name thorax
     direction 0.00473652 0.989004 0.147814   
     length 1.94516   
     axis 0 0 0   XYZ
    dof rx ry rz
    limits (-20.0 45.0)
           (-30.0 30.0)
           (-30.0 30.0)
  end
  begin
     id 14 
     name lowerneck
     direction -0.00925808 0.999011 0.0434791   
     length 1.81771   
     axis 0 0 0   XYZ
    dof rx ry rz
    limits (-20.0 45.0)
           (-30.0 30.0)
           (-30.0 30.0)
  end
  begin
     id 15 
     name upperneck
     direction 0.00451595 0.964412 -0.264365   
     length 1.80434   
     axis 0 0 0   XYZ
    dof rx ry rz
    limits (-20.0 45.0)
           (-30.0 30.0)
           (-30.0 30.0)
  end
  begin
     id 16
     name head
     direction -0.00110849 0.995756 -0.0920241  
     length 1.84006  
     axis 0 0 0   XYZ
    dof rx ry rz
    limits (-20.0 45.0)
           (-30.0 30.0)
           (-30.0 30.0)
  end
  begin
     id 17 
     name lclavicle
     direction 0.921253 0.385213 0.0538957  
     length 3.67415  
     axis 0 0 0   XYZ
    dof ry rz
    limits (-20.0 10.0)
           (0.0 20.0)
  end
  begin
     id 18 
     name lhumerus
     direction 1 -4.48961e-011 6.73441e-028   
     length 4.32712   
     axis 180 -30 -90   XYZ
    dof rx ry rz
    limits (-60.0 90.0)
           (-90.0 90.0)
           (-90.0 90.0)
  end
  begin
     id 19
     name lradius
     direction 1 -4.48985e-011 -9.53507e-028   
     length 3.28587   
     axis 180 -30 -90   XYZ
    dof rx
    limits (-10.0 170.0)
  end
  begin
     id 20
     name lwrist
     direction 1 -4.48951e-011 -4.67472e-027   
     length 1.64293   
     axis 1.65735e-015 90 90   XYZ
    dof ry
    limits (-180.0 0.0)
 end
  begin
     id 21 
     name lhand
     direction 1 -4.48946e-011 -9.34945e-027   
     length 0.433158   
     axis 5.96574e-015 90 90   XYZ
    dof rx rz
    limits (-90.0 90.0)
           (-45.0 45.0)
  end
  begin
     id 22 
     name lfingers
     direction 1 -4.48882e-011 -1.86989e-026   
     length 0.349224   
     axis 1.19315e-014 90 90   XYZ
    dof rx
    limits (0.0 90.0)
  end
  begin
     id 23
     name lthumb
     direction 0.707107 -6.3493e-011 0.707107   
     length 0.501417   
     axis -90 45 2.85299e-015   XYZ
    dof rx rz
    limits (-45.0 45.0)
           (-45.0 45.0)
  end
  begin
     id 24 
     name rclavicle
     direction -0.884378 0.46502 -0.0403866   
     length 3.50218  
     axis 0 0 0   XYZ 
    dof ry rz
    limits (-10.0 20.0)
           (-20.0 0.0)
  end
  begin
     id 25 
     name rhumerus
     direction -1 -4.48964e-011 1.58188e-027  
     length 4.29104   
     axis 180 30 90   XYZ
    dof rx ry rz
    limits (-90.0 60.0)
           (-90.0 90.0)
           (-90.0 90.0)
  end
  begin
     id 26 
     name rradius
     direction -1 -4.48978e-011 -1.9722e-027   
     length 3.2272   
     axis 180 30 90   XYZ
    dof rx
    limits (-10.0 170.0)
  end
  begin
     id 27 
     name rwrist
     direction -1 -4.48969e-011 -4.67472e-027   
     length 1.6136   
     axis 1.65735e-015 -90 -90   XYZ
    dof ry
    limits (-180.0 0.0)
  end
  begin
     id 28
     name rhand
     direction -1 -4.48846e-011 -9.34945e-027   
     length 0.543623   
     axis 5.96574e-015 -90 -90   XYZ
    dof rx rz
    limits (-90.0 90.0)
           (-45.0 45.0)
  end
  begin
     id 29
     name rfingers
     direction -1 -4.49074e-011 -1.86989e-026   
     length 0.438283   
     axis 1.19315e-014 -90 -90   XYZ
    dof rx
    limits (0.0 90.0)
  end
  begin
     id 30
     name rthumb
     direction -0.707107 -6.34834e-011 0.707107   
     length 0.629289   
     axis -90 -45 -2.85299e-015   XYZ
    dof rx rz
    limits (-45.0 45.0)
           (-45.0 45.0)
  end
:hierarchy
  begin
    root lhipjoint rhipjoint lowerback
    lhipjoint lfemur
    lfemur ltibia
    ltibia lfoot
    lfoot ltoes
    rhipjoint rfemur
    rfemur rtibia
    rtibia rfoot
    rfoot rtoes
    lowerback upperback
    upperback thorax
    thorax lowerneck lclavicle rclavicle
    lowerneck upperneck
    upperneck head
    lclavicle lhumerus
    lhumerus lradius
    lradius lwrist
    lwrist lhand lthumb
    lhand lfingers
    rclavicle rhumerus
    rhumerus rradius
    rradius rwrist
    rwrist rhand rthumb
    rhand rfingers
  end

#!OML:ASF H:\GeneralSubjects\Female5\Project 1\Capture day 1\Session 1\Female5.ASF
:FULLY-SPECIFIED
:DEGREES
69
root -32.4655 15.741 3.32633 -173.218 -2.15789 -177.263
lowerback 5.12473 1.77886 2.7104
upperback -9.79058 2.15287 2.24121
thorax -13.5315 0.542551 0.674424
lowerneck -18.0079 -1.55477 -4.24197
upperneck 34.747 -4.05771 1.4002
head 15.2999 -3.05871 0.328177
rclavicle -1.38155e-014 2.78299e-014
rhumerus -53.3653 30.6114 -93.8552
rradius 42.7651
rwrist -25.3807
rhand -16.4618 -26.2182
rfingers 7.12502
rthumb 9.75467 -55.9723
lclavicle -1.38155e-014 2.78299e-014
lhumerus -49.4147 9.52061 74.2922
lradius 33.7918
lwrist -5.66132
lhand -22.9284 31.9982
lfingers 7.12502
lthumb 3.51229 61.949
rfemur 0 0 0
rtibia 0
rfoot 0 0
rtoes 0
lfemur -24.0152 -13.5169 -8.06908
ltibia 21.3586
lfoot -24.8998 21.8024
ltoes -63.4274
70
root -32.4794 15.7603 3.32254 -173.358 -2.20724 -177.591
lowerback 5.24369 1.7793 2.47139
upperback -9.83659 2.12825 2.19275
thorax -13.6683 0.551529 0.757267
lowerneck -17.8664 -1.38609 -4.55646
upperneck 34.7175 -3.72371 1.49119
head 15.2493 -2.94969 0.485304
rclavicle 3.97569e-016 1.07344e-014
rhumerus -54.2144 31.5037 -93.997
rradius 44.1266
rwrist -26.6656
rhand -16.4519 -26.3947
rfingers 7.12502
rthumb 9.76419 -56.1483
lclavicle 3.97569e-016 1.07344e-014
lhumerus -49.808 8.95716 74.1928
lradius 34.0018
lwrist -4.94272
lhand -22.7157 32.064
lfingers 7.12502
lthumb 3.71768 62.0113
rfemur 0 0 0
rtibia 0
rfoot 0 0
rtoes 0
lfemur -23.7009 -13.8169 -8.61541
ltibia 21.2022
lfoot -24.097 22.3307
ltoes -64.334
71
root -32.4876 15.7781 3.32156 -173.349 -2.2764 -177.687
lowerback 5.24829 1.79868 2.34875
upperback -9.91777 2.13487 2.27145
thorax -13.7769 0.564687 0.914165
lowerneck -17.8554 -1.09653 -4.25676
upperneck 34.7409 -3.08267 0.714804
head 15.2104 -2.74907 0.2248
rclavicle -1.08338e-014 9.54166e-015
rhumerus -55.3107 33.207 -94.1773
rradius 45.9782
rwrist -28.9568
rhand -16.5563 -26.7683
rfingers 7.12502
rthumb 9.6635 -56.5266
lclavicle -1.08338e-014 9.54166e-015
lhumerus -50.1214 8.52071 74.0869
lradius 34.2284
lwrist -4.17291
lhand -22.5025 32.412
lfingers 7.12502
lthumb 3.92356 62.3557
rfemur 0 0 0
rtibia 0
rfoot 0 0
rtoes 0
lfemur -23.652 -13.7577 -8.82043
ltibia 21.0862
lfoot -23.3387 22.7183
ltoes -63.8544
72
root -32.4905 15.7941 3.32311 -173.228 -2.28935 -177.504
lowerback 5.15771 1.86581 2.44634
upperback -10.0243 2.2232 2.42805
thorax -13.8512 0.592706 1.02394
lowerneck -17.758 -0.814785 -4.09115
upperneck 34.6284 -2.44438 0.0736322
head 15.1017 -2.5417 0.0483148
rclavicle 9.93923e-017 -3.33958e-014
rhumerus -56.2894 33.802 -93.8317
rradius 47.9431
rwrist -30.2879
rhand -16.4862 -27.0726
rfingers 7.12502
rthumb 9.73104 -56.8278
lclavicle 9.93923e-017 -3.33958e-014
lhumerus -50.3464 8.08859 73.9131
lradius 34.4644
lwrist -3.34751
lhand -22.3551 32.7363
lfingers 7.12502
lthumb 4.06588 62.6773
rfemur 0 0 0
rtibia 0
rfoot 0 0
rtoes 0
lfemur -23.7819 -13.5822 -8.58245
ltibia 21.0162
lfoot -23.1995 22.7775
ltoes -64.9789
73
root -32.4991 15.8099 3.32406 -173.102 -2.31365 -177.486
lowerback 5.04219 1.92323 2.45628
upperback -10.1171 2.28439 2.51206
thorax -13.8934 0.615247 1.10675
lowerneck -17.6431 -0.531678 -3.97197
upperneck 34.4648 -1.84644 -0.404723
head 14.9761 -2.33066 -0.0579023
rclavicle 6.06293e-015 -4.29375e-014
rhumerus -56.9926 34.2683 -93.2175
rradius 49.8788
rwrist -31.6085
rhand -16.3591 -27.3225
rfingers 7.12502
rthumb 9.85368 -57.072
lclavicle 6.06293e-015 -4.29375e-014
lhumerus -50.5151 7.65048 73.6418
lradius 34.7498
lwrist -2.47504
lhand -21.9528 32.6997
lfingers 7.12502
lthumb 4.45433 62.6329
rfemur 0 0 0
rtibia 0
rfoot 0 0
rtoes 0
lfemur -23.8511 -13.612 -8.56186
ltibia 20.8481
lfoot -23.0387 22.9674
ltoes -64.2759
74
root -32.5074 15.8253 3.32341 -173.034 -2.33096 -177.707
lowerback 4.97872 1.93353 2.19964
upperback -10.1632 2.25986 2.52054
thorax -13.9195 0.6282 1.2658
lowerneck -17.5205 -0.24173 -3.64477
upperneck 34.0502 -1.23348 -0.96835
head 14.7355 -2.07514 -0.224083
rclavicle -2.0276e-014 1.66979e-014
rhumerus -57.5233 34.6363 -92.4489
rradius 51.936
rwrist -32.8822
rhand -15.9609 -27.775
rfingers 7.12502
rthumb 10.2379 -57.5059
lclavicle -2.0276e-014 1.66979e-014
lhumerus -50.6113 7.19849 73.2485
lradius 35.0937
lwrist -1.32388
lhand -21.4673 32.6064
lfingers 7.12502
lthumb 4.92317 62.5292
rfemur 0 0 0
rtibia 0
rfoot 0 0
rtoes 0
lfemur -23.7406 -13.8211 -8.84419
ltibia 20.5587
lfoot -23.5232 22.4996
ltoes -63.4455
75
root -32.5137 15.8412 3.32225 -173.073 -2.38103 -177.781
lowerback 5.03714 1.93737 2.11991
upperback -10.1819 2.25927 2.53088
thorax -13.9832 0.63643 1.32148
lowerneck -17.5869 -0.078658 -3.09431
upperneck 33.992 -0.685966 -2.31554
head 14.7135 -1.96451 -0.781073
rclavicle 1.43125e-014 -1.74931e-014
rhumerus -57.8258 34.81 -91.5818
rradius 53.9264
rwrist -34.2204
rhand -15.159 -28.2165
rfingers 7.12502
rthumb 11.0114 -57.9077
lclavicle 1.43125e-014 -1.74931e-014
lhumerus -50.6735 6.88192 72.6597
lradius 35.536
lwrist -0.0544378
lhand -21.0639 32.7677
lfingers 7.12502
lthumb 5.31269 62.6811
rfemur 0 0 0
rtibia 0
rfoot 0 0
rtoes 0
lfemur -23.5487 -14.301 -8.93146
ltibia 20.3207
lfoot -24.3726 21.9712
ltoes -62.7198
76
root -32.5205 15.8592 3.31989 -173.094 -2.51304 -177.846
lowerback 5.08522 1.92998 2.16515
upperback -10.2293 2.24943 2.48843
thorax -14.0664 0.621622 1.25165
lowerneck -17.7223 0.230604 -2.99151
upperneck 34.1696 -0.179736 -2.53927
head 14.8263 -1.78076 -0.811834
rclavicle -2.10712e-014 -4.13472e-014
rhumerus -58.0935 34.7485 -90.5871
rradius 55.8735
rwrist -35.524
rhand -14.6068 -27.8848
rfingers 7.12502
rthumb 11.544 -57.5469
lclavicle -2.10712e-014 -4.13472e-014
lhumerus -50.8174 6.67533 71.8586
lradius 36.1777
lwrist 1.51272
lhand -20.8253 32.9849
lfingers 7.12502
lthumb 5.54305 62.8924
rfemur 0 0 0
rtibia 0
rfoot 0 0
rtoes 0
lfemur -23.4292 -14.8576 -9.01893
ltibia 20.1294
lfoot -24.7533 22.0882
ltoes -62.8107
77
root -32.5281 15.8753 3.31795 -172.927 -2.63898 -178.078
lowerback 4.97081 1.93471 2.05725
upperback -10.348 2.21409 2.41145
thorax -14.1363 0.602697 1.23825
lowerneck -17.6636 0.575808 -2.89131
upperneck 34.2106 0.38554 -2.78975
head 14.834 -1.57206 -0.836383
rclavicle 3.77691e-015 -7.95139e-015
rhumerus -58.0879 34.5178 -89.3028
rradius 57.6143
rwrist -36.6344
rhand -14.324 -27.3438
rfingers 7.12502
rthumb 11.8167 -56.9904
lclavicle 3.77691e-015 -7.95139e-015
lhumerus -51.0385 6.56653 70.9371
lradius 36.9584
lwrist 3.52256
lhand -20.675 33.1035
lfingers 7.12502
lthumb 5.68818 63.0072
rfemur 0 0 0
rtibia 0
rfoot 0 0
rtoes 0
lfemur -23.5258 -15.0822 -9.28922
ltibia 19.9426
lfoot -24.5369 22.4946
ltoes -63.5991
78
root -32.5361 15.8881 3.31804 -172.733 -2.71872 -178.166
lowerback 4.84236 1.94467 2.07965
upperback -10.4659 2.20124 2.39205
thorax -14.1942 0.581846 1.21289
lowerneck -17.5048 0.949863 -2.90249
upperneck 34.112 0.981635 -2.86279
head 14.7539 -1.32812 -0.75629
rclavicle 1.31198e-014 -4.53229e-014
rhumerus -57.964 34.4169 -87.8937
rradius 59.4669
rwrist -38.0354
rhand -14.111 -27.391
rfingers 7.12502
rthumb 12.022 -57.0257
lclavicle 1.31198e-014 -4.53229e-014
lhumerus -51.2515 6.78508 69.801
lradius 37.8302
lwrist 5.83755
lhand -20.3018 33.2468
lfingers 7.12502
lthumb 6.04845 63.1404
rfemur 0 0 0
rtibia 0
rfoot 0 0
rtoes 0
lfemur -23.6764 -14.9993 -9.38831
ltibia 19.7482
lfoot -23.6569 23.2126
ltoes -64.6233
79
root -32.5434 15.9004 3.31404 -172.728 -2.77633 -178.056
lowerback 4.85734 1.92618 2.28168
upperback -10.5413 2.18836 2.41902
thorax -14.2878 0.547384 1.13547
lowerneck -17.3451 1.30662 -3.00545
upperneck 34.0825 1.51671 -2.78972
head 14.7027 -1.10722 -0.614401
rclavicle -1.66979e-014 -8.5875e-014
rhumerus -57.9514 34.3125 -86.4804
rradius 61.5861
rwrist -39.6845
rhand -13.9136 -27.7639
rfingers 7.12502
rthumb 12.2124 -57.3873
lclavicle -1.66979e-014 -8.5875e-014
lhumerus -51.6034 7.23937 68.3757
lradius 38.9746
lwrist 8.68752
lhand -19.5528 33.2471
lfingers 7.12502
lthumb 6.77154 63.1188
rfemur 0 0 0
rtibia 0
rfoot 0 0
rtoes 0
lfemur -23.5421 -14.9769 -9.26684
ltibia 19.5241
lfoot -23.7554 22.9888
ltoes -63.9863
80
root -32.5528 15.9101 3.30237 -172.851 -2.80046 -178.036
lowerback 4.9307 1.91396 2.43078
upperback -10.6137 2.18252 2.4336
thorax -14.4171 0.52211 1.07166
lowerneck -17.0365 1.70207 -2.12144
upperneck 33.9535 2.31552 -4.41282
head 14.6243 -0.904286 -1.30455
rclavicle 6.16232e-015 1.59028e-014
rhumerus -58.1337 34.0368 -84.9499
rradius 63.8803
rwrist -41.5082
rhand -13.8537 -28.051
rfingers 7.12502
rthumb 12.2702 -57.671
lclavicle 6.16232e-015 1.59028e-014
lhumerus -52.1531 7.81347 66.8116
lradius 40.3685
lwrist 12.0648
lhand -18.8691 33.2196
lfingers 7.12502
lthumb 7.43147 63.0691
rfemur 0 0 0
rtibia 0
rfoot 0 0
rtoes 0
lfemur -23.1711 -15.1553 -9.3047
ltibia 19.2752
lfoot -24.6763 22.2686
ltoes -63.0495
